<svg width="95" height="24" viewBox="0 0 95 24" fill="none" xmlns="http://www.w3.org/2000/svg">
<path d="M77.9594 23.9346C74.2344 23.9346 71.4469 22.8721 69.5969 20.7471C67.7719 18.5971 66.8594 15.7221 66.8594 12.1221C66.8594 8.52207 67.7719 5.65957 69.5969 3.53457C71.4469 1.38457 74.2344 0.30957 77.9594 0.30957C81.6844 0.30957 84.4594 1.38457 86.2844 3.53457C88.1344 5.65957 89.0594 8.52207 89.0594 12.1221C89.0594 15.7221 88.1344 18.5971 86.2844 20.7471C84.4594 22.8721 81.6844 23.9346 77.9594 23.9346ZM77.9594 19.8846C79.6094 19.8846 80.8219 19.2346 81.5969 17.9346C82.3719 16.6346 82.7594 14.6846 82.7594 12.0846C82.7594 9.50957 82.3719 7.58457 81.5969 6.30957C80.8219 5.00957 79.6094 4.35957 77.9594 4.35957C76.3094 4.35957 75.0969 5.00957 74.3219 6.30957C73.5469 7.58457 73.1594 9.50957 73.1594 12.0846C73.1594 14.6846 73.5469 16.6346 74.3219 17.9346C75.0969 19.2346 76.3094 19.8846 77.9594 19.8846Z" fill="#DBFF97"/>
<path d="M44.6719 23.3721V0.87207H50.2969V4.24707H51.1969C51.6469 3.12207 52.3344 2.18457 53.2594 1.43457C54.2094 0.684571 55.5969 0.30957 57.4219 0.30957C59.9219 0.30957 61.7969 1.09707 63.0469 2.67207C64.2969 4.24707 64.9219 6.38457 64.9219 9.08457V23.3721H58.8469V10.0971C58.8469 8.54707 58.5719 7.35957 58.0219 6.53457C57.4719 5.68457 56.5719 5.25957 55.3219 5.25957C53.8719 5.25957 52.7469 5.83457 51.9469 6.98457C51.1469 8.10957 50.7469 9.52207 50.7469 11.2221V23.3721H44.6719Z" fill="#DBFF97"/>
<path d="M28.2586 23.9346C25.7586 23.9346 23.8711 23.1471 22.5961 21.5721C21.3211 19.9971 20.6836 17.8596 20.6836 15.1596V0.87207H26.7586V14.1471C26.7586 15.6721 27.0336 16.8596 27.5836 17.7096C28.1336 18.5596 29.0211 18.9846 30.2461 18.9846C31.7211 18.9846 32.8586 18.4096 33.6586 17.2596C34.4586 16.1096 34.8586 14.6971 34.8586 13.0221V0.87207H40.9336V23.3721H35.4586V19.9971H34.5586C34.1836 21.1221 33.4961 22.0596 32.4961 22.8096C31.4961 23.5596 30.0836 23.9346 28.2586 23.9346Z" fill="#DBFF97"/>
<path d="M0 23.3721V18.5346L8.2125 8.89707C8.6875 8.34707 9.1375 7.83457 9.5625 7.35957C9.9875 6.85957 10.4 6.42207 10.8 6.04707V5.14707H0.45V0.87207H18.225V5.70957L10.05 15.3471C9.575 15.8971 9.1125 16.4221 8.6625 16.9221C8.2375 17.3971 7.825 17.8221 7.425 18.1971V19.0971H18.675V23.3721H0Z" fill="#DBFF97"/>
<path d="M90.9416 4.11932V1.49858H92.2235C92.3893 1.49858 92.5408 1.53291 92.6781 1.60156C92.8178 1.67022 92.9279 1.76965 93.0083 1.89986C93.0912 2.0277 93.1326 2.18395 93.1326 2.36861C93.1326 2.55327 93.09 2.7107 93.0048 2.84091C92.9196 2.97112 92.8059 3.07055 92.6639 3.1392C92.5218 3.20549 92.3644 3.23864 92.1916 3.23864H91.3145V2.74503H92.0495C92.149 2.74503 92.2342 2.71307 92.3052 2.64915C92.3786 2.58523 92.4153 2.49053 92.4153 2.36506C92.4153 2.23485 92.3786 2.14252 92.3052 2.08807C92.2342 2.03125 92.1502 2.00284 92.0531 2.00284H91.6234V4.11932H90.9416ZM92.6142 2.90838L93.2108 4.11932H92.465L91.9075 2.90838H92.6142ZM91.9679 5.68182C91.5749 5.68182 91.2067 5.60843 90.8635 5.46165C90.5202 5.31487 90.2183 5.11127 89.9579 4.85085C89.6975 4.59044 89.4939 4.28859 89.3471 3.94531C89.2003 3.60204 89.127 3.2339 89.127 2.84091C89.127 2.44792 89.2003 2.07978 89.3471 1.73651C89.4939 1.39323 89.6975 1.09138 89.9579 0.830966C90.2183 0.57055 90.5202 0.366951 90.8635 0.220171C91.2067 0.0733903 91.5749 0 91.9679 0C92.3609 0 92.729 0.0733903 93.0723 0.220171C93.4155 0.366951 93.7174 0.57055 93.9778 0.830966C94.2382 1.09138 94.4418 1.39323 94.5886 1.73651C94.7354 2.07978 94.8088 2.44792 94.8088 2.84091C94.8088 3.2339 94.7354 3.60204 94.5886 3.94531C94.4418 4.28859 94.2382 4.59044 93.9778 4.85085C93.7174 5.11127 93.4155 5.31487 93.0723 5.46165C92.729 5.60843 92.3609 5.68182 91.9679 5.68182ZM91.9679 4.93253C92.3561 4.93253 92.7077 4.83902 93.0225 4.65199C93.3398 4.4626 93.5919 4.21046 93.7789 3.8956C93.966 3.57836 94.0595 3.2268 94.0595 2.84091C94.0595 2.45502 93.9648 2.10464 93.7754 1.78977C93.5884 1.47254 93.3362 1.22041 93.019 1.03338C92.7041 0.843987 92.3538 0.74929 91.9679 0.74929C91.5843 0.74929 91.234 0.843987 90.9167 1.03338C90.5995 1.22041 90.3474 1.47254 90.1603 1.78977C89.9733 2.10464 89.8798 2.45502 89.8798 2.84091C89.8798 3.2268 89.9733 3.57836 90.1603 3.8956C90.3474 4.21046 90.5995 4.4626 90.9167 4.65199C91.234 4.83902 91.5843 4.93253 91.9679 4.93253Z" fill="#DBFF97"/>
</svg>
