<svg width="96" height="25" viewBox="0 0 96 25" fill="none" xmlns="http://www.w3.org/2000/svg">
<path d="M78.309 24.5625C74.584 24.5625 71.7965 23.5 69.9465 21.375C68.1215 19.225 67.209 16.35 67.209 12.75C67.209 9.15 68.1215 6.2875 69.9465 4.1625C71.7965 2.0125 74.584 0.9375 78.309 0.9375C82.034 0.9375 84.809 2.0125 86.634 4.1625C88.484 6.2875 89.409 9.15 89.409 12.75C89.409 16.35 88.484 19.225 86.634 21.375C84.809 23.5 82.034 24.5625 78.309 24.5625ZM78.309 20.5125C79.959 20.5125 81.1715 19.8625 81.9465 18.5625C82.7215 17.2625 83.109 15.3125 83.109 12.7125C83.109 10.1375 82.7215 8.2125 81.9465 6.9375C81.1715 5.6375 79.959 4.9875 78.309 4.9875C76.659 4.9875 75.4465 5.6375 74.6715 6.9375C73.8965 8.2125 73.509 10.1375 73.509 12.7125C73.509 15.3125 73.8965 17.2625 74.6715 18.5625C75.4465 19.8625 76.659 20.5125 78.309 20.5125Z" fill="white"/>
<path d="M45.0215 24V1.5H50.6465V4.875H51.5465C51.9965 3.75 52.684 2.8125 53.609 2.0625C54.559 1.3125 55.9465 0.9375 57.7715 0.9375C60.2715 0.9375 62.1465 1.725 63.3965 3.3C64.6465 4.875 65.2715 7.0125 65.2715 9.7125V24H59.1965V10.725C59.1965 9.175 58.9215 7.9875 58.3715 7.1625C57.8215 6.3125 56.9215 5.8875 55.6715 5.8875C54.2215 5.8875 53.0965 6.4625 52.2965 7.6125C51.4965 8.7375 51.0965 10.15 51.0965 11.85V24H45.0215Z" fill="white"/>
<path d="M28.6082 24.5625C26.1082 24.5625 24.2207 23.775 22.9457 22.2C21.6707 20.625 21.0332 18.4875 21.0332 15.7875V1.5H27.1082V14.775C27.1082 16.3 27.3832 17.4875 27.9332 18.3375C28.4832 19.1875 29.3707 19.6125 30.5957 19.6125C32.0707 19.6125 33.2082 19.0375 34.0082 17.8875C34.8082 16.7375 35.2082 15.325 35.2082 13.65V1.5H41.2832V24H35.8082V20.625H34.9082C34.5332 21.75 33.8457 22.6875 32.8457 23.4375C31.8457 24.1875 30.4332 24.5625 28.6082 24.5625Z" fill="white"/>
<path d="M0.349609 24V19.1625L8.56211 9.525C9.03711 8.975 9.48711 8.4625 9.91211 7.9875C10.3371 7.4875 10.7496 7.05 11.1496 6.675V5.775H0.799609V1.5H18.5746V6.3375L10.3996 15.975C9.92461 16.525 9.46211 17.05 9.01211 17.55C8.58711 18.025 8.17461 18.45 7.77461 18.825V19.725H19.0246V24H0.349609Z" fill="white"/>
<path d="M91.2912 4.74725V2.12651H92.5732C92.7389 2.12651 92.8904 2.16084 93.0277 2.22949C93.1674 2.29815 93.2775 2.39758 93.358 2.52779C93.4408 2.65563 93.4822 2.81188 93.4822 2.99654C93.4822 3.1812 93.4396 3.33863 93.3544 3.46884C93.2692 3.59905 93.1555 3.69848 93.0135 3.76713C92.8714 3.83342 92.714 3.86657 92.5412 3.86657H91.6641V3.37296H92.3991C92.4986 3.37296 92.5838 3.341 92.6548 3.27708C92.7282 3.21316 92.7649 3.11846 92.7649 2.99299C92.7649 2.86278 92.7282 2.77045 92.6548 2.716C92.5838 2.65918 92.4998 2.63077 92.4027 2.63077H91.973V4.74725H91.2912ZM92.9638 3.53631L93.5604 4.74725H92.8146L92.2571 3.53631H92.9638ZM92.3175 6.30975C91.9245 6.30975 91.5563 6.23636 91.2131 6.08958C90.8698 5.9428 90.5679 5.7392 90.3075 5.47878C90.0471 5.21837 89.8435 4.91652 89.6967 4.57324C89.55 4.22997 89.4766 3.86183 89.4766 3.46884C89.4766 3.07585 89.55 2.70771 89.6967 2.36444C89.8435 2.02116 90.0471 1.71931 90.3075 1.4589C90.5679 1.19848 90.8698 0.994881 91.2131 0.8481C91.5563 0.70132 91.9245 0.62793 92.3175 0.62793C92.7105 0.62793 93.0786 0.70132 93.4219 0.8481C93.7652 0.994881 94.067 1.19848 94.3274 1.4589C94.5878 1.71931 94.7914 2.02116 94.9382 2.36444C95.085 2.70771 95.1584 3.07585 95.1584 3.46884C95.1584 3.86183 95.085 4.22997 94.9382 4.57324C94.7914 4.91652 94.5878 5.21837 94.3274 5.47878C94.067 5.7392 93.7652 5.9428 93.4219 6.08958C93.0786 6.23636 92.7105 6.30975 92.3175 6.30975ZM92.3175 5.56046C92.7057 5.56046 93.0573 5.46695 93.3722 5.27992C93.6894 5.09052 93.9415 4.83839 94.1286 4.52353C94.3156 4.20629 94.4091 3.85473 94.4091 3.46884C94.4091 3.08295 94.3144 2.73257 94.125 2.4177C93.938 2.10047 93.6858 1.84834 93.3686 1.66131C93.0537 1.47192 92.7034 1.37722 92.3175 1.37722C91.9339 1.37722 91.5836 1.47192 91.2663 1.66131C90.9491 1.84834 90.697 2.10047 90.5099 2.4177C90.3229 2.73257 90.2294 3.08295 90.2294 3.46884C90.2294 3.85473 90.3229 4.20629 90.5099 4.52353C90.697 4.83839 90.9491 5.09052 91.2663 5.27992C91.5836 5.46695 91.9339 5.56046 92.3175 5.56046Z" fill="white"/>
</svg>
